<svg width="1400" height="420" viewBox="0 0 1400 420" fill="none" xmlns="http://www.w3.org/2000/svg">
  <defs>
    <linearGradient id="bg" x1="40" y1="10" x2="1360" y2="410" gradientUnits="userSpaceOnUse">
      <stop stop-color="#0F172A"/>
      <stop offset="0.55" stop-color="#122B48"/>
      <stop offset="1" stop-color="#0B4F75"/>
    </linearGradient>
    <linearGradient id="accent" x1="270" y1="95" x2="470" y2="300" gradientUnits="userSpaceOnUse">
      <stop stop-color="#38BDF8"/>
      <stop offset="1" stop-color="#229ED9"/>
    </linearGradient>
    <filter id="shadow" x="-20%" y="-20%" width="140%" height="140%">
      <feDropShadow dx="0" dy="14" stdDeviation="18" flood-color="#020617" flood-opacity="0.35"/>
    </filter>
  </defs>

  <rect width="1400" height="420" rx="36" fill="url(#bg)"/>

  <circle cx="1260" cy="80" r="210" fill="#38BDF8" opacity="0.06"/>
  <circle cx="1310" cy="370" r="250" fill="#229ED9" opacity="0.08"/>
  <circle cx="110" cy="370" r="180" fill="#38BDF8" opacity="0.05"/>

  <g opacity="0.12">
    <path d="M1020 78H1325" stroke="#BAE6FD" stroke-width="2"/>
    <path d="M985 122H1325" stroke="#BAE6FD" stroke-width="2"/>
    <path d="M950 166H1325" stroke="#BAE6FD" stroke-width="2"/>
  </g>

  <g filter="url(#shadow)">
    <rect x="110" y="78" width="272" height="264" rx="38" fill="#F8FAFC"/>
    <rect x="110" y="78" width="272" height="76" rx="38" fill="url(#accent)"/>
    <rect x="110" y="126" width="272" height="28" fill="url(#accent)"/>

    <rect x="160" y="56" width="20" height="68" rx="10" fill="#E0F2FE"/>
    <rect x="312" y="56" width="20" height="68" rx="10" fill="#E0F2FE"/>

    <rect x="148" y="190" width="54" height="42" rx="12" fill="#E0F2FE"/>
    <rect x="219" y="190" width="54" height="42" rx="12" fill="#E0F2FE"/>
    <rect x="290" y="190" width="54" height="42" rx="12" fill="#E0F2FE"/>

    <rect x="148" y="247" width="54" height="42" rx="12" fill="#E0F2FE"/>
    <rect x="219" y="247" width="54" height="42" rx="12" fill="#229ED9"/>
    <rect x="290" y="247" width="54" height="42" rx="12" fill="#E0F2FE"/>

    <path d="M235 266L247 278L266 255" stroke="white" stroke-width="8" stroke-linecap="round" stroke-linejoin="round"/>
  </g>

  <g>
    <text x="455" y="160" fill="#F8FAFC" font-size="74" font-family="Arial, Helvetica, sans-serif" font-weight="700">BookingBot</text>
    <text x="458" y="214" fill="#BAE6FD" font-size="28" font-family="Arial, Helvetica, sans-serif" font-weight="500">Production-Ready Telegram Appointment Booking System</text>

    <g transform="translate(458 258)">
      <rect width="125" height="42" rx="21" fill="#F8FAFC" fill-opacity="0.10"/>
      <text x="62.5" y="27" text-anchor="middle" fill="#F8FAFC" font-size="17" font-family="Arial, Helvetica, sans-serif">Python</text>
    </g>
    <g transform="translate(598 258)">
      <rect width="130" height="42" rx="21" fill="#F8FAFC" fill-opacity="0.10"/>
      <text x="65" y="27" text-anchor="middle" fill="#F8FAFC" font-size="17" font-family="Arial, Helvetica, sans-serif">aiogram 3</text>
    </g>
    <g transform="translate(743 258)">
      <rect width="155" height="42" rx="21" fill="#F8FAFC" fill-opacity="0.10"/>
      <text x="77.5" y="27" text-anchor="middle" fill="#F8FAFC" font-size="17" font-family="Arial, Helvetica, sans-serif">SQLAlchemy</text>
    </g>
    <g transform="translate(913 258)">
      <rect width="120" height="42" rx="21" fill="#F8FAFC" fill-opacity="0.10"/>
      <text x="60" y="27" text-anchor="middle" fill="#F8FAFC" font-size="17" font-family="Arial, Helvetica, sans-serif">SQLite</text>
    </g>

    <text x="458" y="340" fill="#7DD3FC" font-size="18" font-family="Arial, Helvetica, sans-serif" letter-spacing="3">BOOK • MANAGE • AUTOMATE</text>
  </g>
</svg>
